# xmcd
#
# Track frame offsets:
#	150
#	34689
#	62423
#	94157
#	121183
#	145810
#	154038
#	175001
#	202677
#	230002
#
# Disc length: 3426 seconds
#
# Revision: 7
# Processed by: cddbd v1.5.2PL0 Copyright (c) Steve Scherf et al.
# Submitted via: audiograbber 1.83.01
#
DISCID=760d600a
DTITLE=Wayne Shorter - Alegría
DYEAR=2003
DGENRE=Jazz
TTITLE0=Sacajawea
TTITLE1=Serenata
TTITLE2=Vendiendo Alegria
TTITLE3=Bachianas Brasileiras No.5
TTITLE4=Angola
TTITLE5=Interlude
TTITLE6=She Moves Through the Fair
TTITLE7=Orbits
TTITLE8=12th Century Carol
TTITLE9=Capricorn II
EXTD=YEAR: 2003
EXTT0=
EXTT1=
EXTT2=
EXTT3=
EXTT4=
EXTT5=
EXTT6=
EXTT7=
EXTT8=
EXTT9=
PLAYORDER=
